<mxfile host="app.diagrams.net" modified="2023-10-03T03:45:59.133Z" agent="Mozilla/5.0 (Windows NT 10.0; Win64; x64) AppleWebKit/537.36 (KHTML, like Gecko) Chrome/117.0.0.0 Safari/537.36 Edg/117.0.2045.47" etag="CP-XVC1ywsCIHhZ8P5mk" version="22.0.0" type="dropbox" pages="2">
  <diagram name="PÃ¡gina-1" id="XjiD7A7TFfiTYfgxIczh">
    <mxGraphModel dx="2869" dy="2954" grid="1" gridSize="10" guides="1" tooltips="1" connect="1" arrows="1" fold="1" page="1" pageScale="1" pageWidth="1654" pageHeight="1169" math="0" shadow="0">
      <root>
        <mxCell id="0" />
        <mxCell id="1" parent="0" />
        <mxCell id="3cXwZaOKQ93qKa8AkUU2-3" style="edgeStyle=orthogonalEdgeStyle;rounded=0;orthogonalLoop=1;jettySize=auto;html=1;exitX=0.5;exitY=0;exitDx=0;exitDy=0;entryX=0.5;entryY=1;entryDx=0;entryDy=0;" edge="1" parent="1" source="uOWtn8zMzrbVdwkOui6t-71" target="uOWtn8zMzrbVdwkOui6t-87">
          <mxGeometry relative="1" as="geometry" />
        </mxCell>
        <mxCell id="3cXwZaOKQ93qKa8AkUU2-9" style="edgeStyle=orthogonalEdgeStyle;rounded=0;orthogonalLoop=1;jettySize=auto;html=1;exitX=1;exitY=0.5;exitDx=0;exitDy=0;entryX=0;entryY=0.5;entryDx=0;entryDy=0;" edge="1" parent="1" source="uOWtn8zMzrbVdwkOui6t-71" target="uOWtn8zMzrbVdwkOui6t-90">
          <mxGeometry relative="1" as="geometry" />
        </mxCell>
        <mxCell id="uOWtn8zMzrbVdwkOui6t-71" value="" style="rounded=0;whiteSpace=wrap;html=1;labelBorderColor=none;fontSize=11;fillColor=default;strokeColor=#67AB9F;shadow=1;" parent="1" vertex="1">
          <mxGeometry x="-1240" y="-1342" width="190" height="122" as="geometry" />
        </mxCell>
        <mxCell id="uOWtn8zMzrbVdwkOui6t-1" value="&lt;p style=&quot;margin-left:36.0000pt;text-indent:-18.0000pt;mso-list:l0 level1 lfo1;&quot; class=&quot;15&quot;&gt;&lt;br&gt;&lt;/p&gt;" style="rounded=0;whiteSpace=wrap;html=1;shadow=0;glass=0;labelBorderColor=none;sketch=0;fillStyle=auto;strokeColor=#000000;strokeWidth=1;fontSize=13;fontColor=#7ece78;fillColor=default;" parent="1" vertex="1">
          <mxGeometry x="-1578.93" y="-2260" width="1148.93" height="600" as="geometry" />
        </mxCell>
        <mxCell id="uOWtn8zMzrbVdwkOui6t-2" value="" style="edgeStyle=orthogonalEdgeStyle;rounded=0;orthogonalLoop=1;jettySize=auto;html=1;" parent="1" source="uOWtn8zMzrbVdwkOui6t-3" target="uOWtn8zMzrbVdwkOui6t-39" edge="1">
          <mxGeometry relative="1" as="geometry" />
        </mxCell>
        <mxCell id="uOWtn8zMzrbVdwkOui6t-3" value="Servidores&lt;br style=&quot;font-size: 8px;&quot;&gt;&lt;div&gt;10.4.88.61&lt;/div&gt;&lt;div&gt;10.4.88.147&lt;/div&gt;&lt;div&gt;10.4.88.148&lt;/div&gt;" style="rounded=0;whiteSpace=wrap;html=1;labelBorderColor=none;fontSize=8;strokeColor=#EA6B66;align=left;dashed=1;strokeWidth=1;dashPattern=1 4;fontColor=#EA6B66;" parent="1" vertex="1">
          <mxGeometry x="-798.4399999999999" y="-2154" width="48.53" height="40" as="geometry" />
        </mxCell>
        <mxCell id="uOWtn8zMzrbVdwkOui6t-4" value="Servidores&lt;br style=&quot;font-size: 8px;&quot;&gt;&lt;div&gt;10.4.88.109,&amp;nbsp;&lt;span style=&quot;background-color: initial;&quot;&gt;10.4.88.119,&lt;/span&gt;&lt;/div&gt;&lt;div&gt;&lt;div style=&quot;border-color: var(--border-color);&quot;&gt;10.4.88.138,&amp;nbsp;&lt;span style=&quot;background-color: initial;&quot;&gt;10.4.88.144&lt;/span&gt;&lt;/div&gt;&lt;/div&gt;" style="rounded=0;whiteSpace=wrap;html=1;labelBorderColor=none;fontSize=8;strokeColor=#004C99;align=left;dashed=1;strokeWidth=1;dashPattern=1 4;fontColor=#004C99;" parent="1" vertex="1">
          <mxGeometry x="-1474.57" y="-1710" width="104.57" height="30" as="geometry" />
        </mxCell>
        <mxCell id="uOWtn8zMzrbVdwkOui6t-5" value="Servidores&lt;br style=&quot;font-size: 8px;&quot;&gt;10.4.88.61:9393&lt;div data-en-clipboard=&quot;true&quot; data-pm-slice=&quot;1 1 []&quot; style=&quot;font-size: 8px;&quot;&gt;10.4.88.147:9393&lt;br style=&quot;font-size: 8px;&quot;&gt;&lt;/div&gt;&lt;div data-en-clipboard=&quot;true&quot; data-pm-slice=&quot;1 1 []&quot; style=&quot;font-size: 8px;&quot;&gt;10.4.88.148:9393&lt;br style=&quot;font-size: 8px;&quot;&gt;&lt;/div&gt;" style="rounded=0;whiteSpace=wrap;html=1;labelBorderColor=none;fontSize=8;strokeColor=#67AB9F;align=left;dashed=1;strokeWidth=1;dashPattern=1 4;fontColor=#4D8077;" parent="1" vertex="1">
          <mxGeometry x="-1050" y="-2079" width="84.8" height="40" as="geometry" />
        </mxCell>
        <mxCell id="uOWtn8zMzrbVdwkOui6t-6" value="Servidores&lt;br style=&quot;font-size: 8px;&quot;&gt;10.4.88.61:8080&lt;br&gt;10.4.88.147:8080&lt;div data-en-clipboard=&quot;true&quot; data-pm-slice=&quot;1 1 []&quot; style=&quot;font-size: 8px;&quot;&gt;10.4.88.148:8080&lt;br&gt;&lt;/div&gt;" style="rounded=0;whiteSpace=wrap;html=1;labelBorderColor=none;fontSize=8;align=left;dashed=1;strokeWidth=1;dashPattern=1 4;fontColor=#997E8F;strokeColor=#B5739D;" parent="1" vertex="1">
          <mxGeometry x="-1474.5700000000002" y="-2079" width="84.8" height="40" as="geometry" />
        </mxCell>
        <mxCell id="uOWtn8zMzrbVdwkOui6t-7" value="" style="rounded=0;whiteSpace=wrap;html=1;labelBorderColor=none;fontSize=11;strokeWidth=1;strokeColor=#B5739D;shadow=1;fontStyle=1;align=center;" parent="1" vertex="1">
          <mxGeometry x="-1475.99" y="-2216" width="475.99" height="100" as="geometry" />
        </mxCell>
        <mxCell id="uOWtn8zMzrbVdwkOui6t-8" value="" style="rounded=0;whiteSpace=wrap;html=1;labelBorderColor=none;fontSize=11;fillColor=default;shadow=1;strokeColor=#FF9999;" parent="1" vertex="1">
          <mxGeometry x="-771.63" y="-2040" width="162.63" height="330" as="geometry" />
        </mxCell>
        <mxCell id="uOWtn8zMzrbVdwkOui6t-9" value="" style="rounded=0;whiteSpace=wrap;html=1;labelBorderColor=none;fontSize=11;fillColor=default;strokeColor=#59759E;strokeWidth=1;shadow=1;" parent="1" vertex="1">
          <mxGeometry x="-1474.57" y="-1840" width="674.57" height="130" as="geometry" />
        </mxCell>
        <mxCell id="uOWtn8zMzrbVdwkOui6t-10" value="" style="rounded=0;whiteSpace=wrap;html=1;labelBorderColor=none;fontSize=11;fillColor=default;strokeColor=#67AB9F;shadow=1;" parent="1" vertex="1">
          <mxGeometry x="-1050" y="-2040" width="250" height="160" as="geometry" />
        </mxCell>
        <mxCell id="uOWtn8zMzrbVdwkOui6t-11" value="" style="rounded=0;whiteSpace=wrap;html=1;labelBorderColor=none;fontSize=11;strokeWidth=1;strokeColor=#B5739D;shadow=1;" parent="1" vertex="1">
          <mxGeometry x="-1474.57" y="-2040" width="400" height="160" as="geometry" />
        </mxCell>
        <mxCell id="uOWtn8zMzrbVdwkOui6t-12" value="notifyexternal-queue&lt;br style=&quot;border-color: var(--border-color); font-size: 9px;&quot;&gt;notifyexternal-supercharge-transform&lt;br style=&quot;border-color: var(--border-color); font-size: 9px;&quot;&gt;notifyexternal-supercharge-streaming" style="rounded=0;whiteSpace=wrap;html=1;labelBorderColor=none;fontSize=9;strokeColor=#000000;fillColor=default;align=center;dashed=1;dashPattern=1 4;" parent="1" vertex="1">
          <mxGeometry x="-1455.02" y="-2000" width="160.45" height="40" as="geometry" />
        </mxCell>
        <mxCell id="uOWtn8zMzrbVdwkOui6t-13" value="Rutas" style="text;html=1;strokeColor=none;fillColor=none;align=center;verticalAlign=middle;whiteSpace=wrap;rounded=0;fontStyle=1;fontSize=10;" parent="1" vertex="1">
          <mxGeometry x="-1454.48" y="-2020" width="159.91" height="20" as="geometry" />
        </mxCell>
        <mxCell id="uOWtn8zMzrbVdwkOui6t-14" style="edgeStyle=orthogonalEdgeStyle;shape=link;rounded=0;orthogonalLoop=1;jettySize=auto;html=1;exitX=0.5;exitY=0;exitDx=0;exitDy=0;entryX=0.5;entryY=1;entryDx=0;entryDy=0;strokeColor=#990099;strokeWidth=1;fontSize=12;fontColor=#7ece78;" parent="1" source="uOWtn8zMzrbVdwkOui6t-16" target="uOWtn8zMzrbVdwkOui6t-12" edge="1">
          <mxGeometry relative="1" as="geometry" />
        </mxCell>
        <mxCell id="uOWtn8zMzrbVdwkOui6t-15" style="edgeStyle=orthogonalEdgeStyle;rounded=1;orthogonalLoop=1;jettySize=auto;html=1;exitX=0.5;exitY=1;exitDx=0;exitDy=0;strokeColor=#737373;strokeWidth=1;fontSize=13;fontColor=#7ece78;shadow=0;entryX=0;entryY=0.5;entryDx=0;entryDy=0;entryPerimeter=0;" parent="1" source="uOWtn8zMzrbVdwkOui6t-16" target="uOWtn8zMzrbVdwkOui6t-20" edge="1">
          <mxGeometry relative="1" as="geometry">
            <Array as="points">
              <mxPoint x="-1374" y="-1850" />
              <mxPoint x="-1240" y="-1850" />
            </Array>
          </mxGeometry>
        </mxCell>
        <mxCell id="uOWtn8zMzrbVdwkOui6t-16" value="ms-campaign-campaign-integration" style="rounded=1;whiteSpace=wrap;html=1;labelBorderColor=none;fontSize=12;fontStyle=1;fillStyle=auto;fillColor=#e1d5e7;strokeColor=#9673a6;strokeWidth=1;glass=0;shadow=1;" parent="1" vertex="1">
          <mxGeometry x="-1454.48" y="-1960" width="160" height="50" as="geometry" />
        </mxCell>
        <mxCell id="uOWtn8zMzrbVdwkOui6t-17" style="edgeStyle=orthogonalEdgeStyle;orthogonalLoop=1;jettySize=auto;html=1;exitX=0;exitY=0;exitDx=0;exitDy=88.8675;exitPerimeter=0;entryX=0.25;entryY=1;entryDx=0;entryDy=0;fontSize=10;strokeColor=#737373;strokeWidth=1;shadow=0;rounded=1;" parent="1" source="uOWtn8zMzrbVdwkOui6t-18" target="uOWtn8zMzrbVdwkOui6t-16" edge="1">
          <mxGeometry relative="1" as="geometry" />
        </mxCell>
        <mxCell id="uOWtn8zMzrbVdwkOui6t-18" value="queue-notifyexternal-campaign" style="shape=cylinder3;whiteSpace=wrap;html=1;boundedLbl=1;backgroundOutline=1;size=15;labelBorderColor=none;fontSize=11;fillColor=#dae8fc;direction=south;strokeColor=#6c8ebf;strokeWidth=1;fontStyle=1;shadow=1;" parent="1" vertex="1">
          <mxGeometry x="-1455.0199999999998" y="-1810" width="128.49" height="60" as="geometry" />
        </mxCell>
        <mxCell id="uOWtn8zMzrbVdwkOui6t-19" style="edgeStyle=elbowEdgeStyle;rounded=1;orthogonalLoop=1;jettySize=auto;elbow=vertical;html=1;exitX=1;exitY=0.5;exitDx=0;exitDy=0;exitPerimeter=0;shadow=0;strokeColor=#737373;strokeWidth=1;fontSize=13;fontColor=#7ece78;entryX=0.305;entryY=1.017;entryDx=0;entryDy=0;entryPerimeter=0;" parent="1" source="uOWtn8zMzrbVdwkOui6t-20" target="uOWtn8zMzrbVdwkOui6t-29" edge="1">
          <mxGeometry relative="1" as="geometry">
            <Array as="points">
              <mxPoint x="-1074.57" y="-1730" />
            </Array>
          </mxGeometry>
        </mxCell>
        <mxCell id="uOWtn8zMzrbVdwkOui6t-20" value="&lt;div data-en-clipboard=&quot;true&quot; data-pm-slice=&quot;1 1 []&quot;&gt;streaming-notifyexternalsup-campaign&lt;/div&gt;" style="shape=cylinder3;whiteSpace=wrap;html=1;boundedLbl=1;backgroundOutline=1;size=15;labelBorderColor=none;fontSize=11;fillColor=#dae8fc;direction=south;strokeColor=#6c8ebf;strokeWidth=1;fontStyle=1;shadow=1;" parent="1" vertex="1">
          <mxGeometry x="-1304.49" y="-1805" width="128.49" height="60" as="geometry" />
        </mxCell>
        <mxCell id="uOWtn8zMzrbVdwkOui6t-21" style="edgeStyle=orthogonalEdgeStyle;shape=link;rounded=0;orthogonalLoop=1;jettySize=auto;html=1;exitX=0.5;exitY=1;exitDx=0;exitDy=0;entryX=0.5;entryY=0;entryDx=0;entryDy=0;strokeColor=#990099;strokeWidth=1;fontSize=12;fontColor=#7ece78;" parent="1" source="uOWtn8zMzrbVdwkOui6t-22" target="uOWtn8zMzrbVdwkOui6t-25" edge="1">
          <mxGeometry relative="1" as="geometry" />
        </mxCell>
        <mxCell id="uOWtn8zMzrbVdwkOui6t-22" value="&lt;div data-en-clipboard=&quot;true&quot; data-pm-slice=&quot;1 1 []&quot;&gt;exhaustion-plan-d1&lt;/div&gt;&lt;div data-en-clipboard=&quot;true&quot; data-pm-slice=&quot;1 1 []&quot;&gt;&lt;div data-en-clipboard=&quot;true&quot; data-pm-slice=&quot;1 1 []&quot;&gt;exhaustion-plan-d2&lt;/div&gt;&lt;/div&gt;" style="rounded=0;whiteSpace=wrap;html=1;labelBorderColor=none;fontSize=9;strokeColor=default;align=center;dashed=1;strokeWidth=1;dashPattern=1 4;" parent="1" vertex="1">
          <mxGeometry x="-1255.06" y="-2000" width="159.02" height="40" as="geometry" />
        </mxCell>
        <mxCell id="uOWtn8zMzrbVdwkOui6t-23" value="Rutas" style="text;html=1;strokeColor=none;fillColor=none;align=center;verticalAlign=middle;whiteSpace=wrap;rounded=0;fontStyle=1;fontSize=10;" parent="1" vertex="1">
          <mxGeometry x="-1255.06" y="-2020" width="160.49" height="20" as="geometry" />
        </mxCell>
        <mxCell id="uOWtn8zMzrbVdwkOui6t-24" style="edgeStyle=elbowEdgeStyle;orthogonalLoop=1;jettySize=auto;html=1;exitX=0.5;exitY=1;exitDx=0;exitDy=0;strokeColor=#737373;strokeWidth=1;fontSize=13;fontColor=#7ece78;elbow=vertical;entryX=0;entryY=0;entryDx=0;entryDy=88.8675;entryPerimeter=0;shadow=0;rounded=1;" parent="1" source="uOWtn8zMzrbVdwkOui6t-25" target="uOWtn8zMzrbVdwkOui6t-36" edge="1">
          <mxGeometry relative="1" as="geometry">
            <Array as="points">
              <mxPoint x="-1134.57" y="-1850" />
            </Array>
          </mxGeometry>
        </mxCell>
        <mxCell id="uOWtn8zMzrbVdwkOui6t-25" value="&lt;div data-en-clipboard=&quot;true&quot; data-pm-slice=&quot;1 1 []&quot; style=&quot;font-size: 12px;&quot;&gt;ms-campaign-loading-process-integration&lt;/div&gt;" style="rounded=1;whiteSpace=wrap;html=1;labelBorderColor=none;fontSize=12;fontStyle=1;strokeColor=#9673a6;strokeWidth=1;fillColor=#e1d5e7;shadow=1;" parent="1" vertex="1">
          <mxGeometry x="-1255.06" y="-1960" width="160" height="50" as="geometry" />
        </mxCell>
        <mxCell id="uOWtn8zMzrbVdwkOui6t-26" value="CAMEL" style="text;html=1;strokeColor=none;fillColor=none;align=left;verticalAlign=middle;whiteSpace=wrap;rounded=0;fontStyle=1;fontSize=13;" parent="1" vertex="1">
          <mxGeometry x="-1474.57" y="-2040" width="60" height="20" as="geometry" />
        </mxCell>
        <mxCell id="uOWtn8zMzrbVdwkOui6t-27" style="edgeStyle=orthogonalEdgeStyle;rounded=0;orthogonalLoop=1;jettySize=auto;html=1;exitX=1;exitY=0.25;exitDx=0;exitDy=0;fillColor=#bac8d3;strokeColor=#6B6B6B;entryX=0;entryY=0.5;entryDx=0;entryDy=0;" parent="1" source="uOWtn8zMzrbVdwkOui6t-29" target="uOWtn8zMzrbVdwkOui6t-64" edge="1">
          <mxGeometry relative="1" as="geometry">
            <mxPoint x="-744.7200000000003" y="-1977" as="targetPoint" />
          </mxGeometry>
        </mxCell>
        <mxCell id="uOWtn8zMzrbVdwkOui6t-28" style="edgeStyle=orthogonalEdgeStyle;rounded=0;orthogonalLoop=1;jettySize=auto;html=1;exitX=0.75;exitY=1;exitDx=0;exitDy=0;" parent="1" source="uOWtn8zMzrbVdwkOui6t-29" target="uOWtn8zMzrbVdwkOui6t-31" edge="1">
          <mxGeometry relative="1" as="geometry" />
        </mxCell>
        <mxCell id="uOWtn8zMzrbVdwkOui6t-29" value="&lt;div data-en-clipboard=&quot;true&quot; data-pm-slice=&quot;1 1 []&quot; style=&quot;font-size: 12px;&quot;&gt;ms-campaign-upsell-package-offer-stream&lt;/div&gt;" style="rounded=1;whiteSpace=wrap;html=1;labelBorderColor=none;strokeColor=#0e8088;strokeWidth=1;fontSize=12;fillColor=#b0e3e6;fontStyle=1;shadow=1;" parent="1" vertex="1">
          <mxGeometry x="-1027.02" y="-1995" width="200.71" height="70" as="geometry" />
        </mxCell>
        <mxCell id="uOWtn8zMzrbVdwkOui6t-30" style="edgeStyle=orthogonalEdgeStyle;rounded=1;orthogonalLoop=1;jettySize=auto;html=1;exitX=0.5;exitY=0;exitDx=0;exitDy=0;exitPerimeter=0;entryX=0;entryY=0.5;entryDx=0;entryDy=0;fillColor=#bac8d3;strokeColor=#6B6B6B;" parent="1" source="uOWtn8zMzrbVdwkOui6t-31" target="uOWtn8zMzrbVdwkOui6t-62" edge="1">
          <mxGeometry relative="1" as="geometry">
            <mxPoint x="-744.75" y="-1840" as="targetPoint" />
          </mxGeometry>
        </mxCell>
        <mxCell id="uOWtn8zMzrbVdwkOui6t-31" value="&lt;div data-en-clipboard=&quot;true&quot; data-pm-slice=&quot;1 1 []&quot;&gt;&lt;div data-en-clipboard=&quot;true&quot; data-pm-slice=&quot;1 1 []&quot;&gt;queue-sms-api&lt;/div&gt;&lt;/div&gt;" style="shape=cylinder3;whiteSpace=wrap;html=1;boundedLbl=1;backgroundOutline=1;size=11.54873901367182;labelBorderColor=none;fontSize=11;fillColor=#dae8fc;direction=south;strokeColor=#6c8ebf;strokeWidth=1;fontStyle=1;shadow=1;" parent="1" vertex="1">
          <mxGeometry x="-940.7800000000001" y="-1805" width="128.49" height="60" as="geometry" />
        </mxCell>
        <mxCell id="uOWtn8zMzrbVdwkOui6t-32" value="SCDF" style="text;html=1;strokeColor=none;fillColor=none;align=left;verticalAlign=middle;whiteSpace=wrap;rounded=0;fontStyle=1;fontSize=13;" parent="1" vertex="1">
          <mxGeometry x="-1050" y="-2040" width="60" height="20" as="geometry" />
        </mxCell>
        <mxCell id="uOWtn8zMzrbVdwkOui6t-33" value="KAFKA" style="text;html=1;strokeColor=none;fillColor=none;align=left;verticalAlign=middle;whiteSpace=wrap;rounded=0;fontStyle=1;fontSize=13;" parent="1" vertex="1">
          <mxGeometry x="-1474.57" y="-1840" width="60" height="20" as="geometry" />
        </mxCell>
        <mxCell id="uOWtn8zMzrbVdwkOui6t-34" value="OPENSHIFT" style="text;html=1;strokeColor=none;fillColor=none;align=left;verticalAlign=middle;whiteSpace=wrap;rounded=0;fontStyle=1;fontSize=13;" parent="1" vertex="1">
          <mxGeometry x="-771.6299999999999" y="-2040" width="78.06" height="20" as="geometry" />
        </mxCell>
        <mxCell id="uOWtn8zMzrbVdwkOui6t-35" style="edgeStyle=elbowEdgeStyle;rounded=1;orthogonalLoop=1;jettySize=auto;elbow=vertical;html=1;exitX=0;exitY=0;exitDx=0;exitDy=39.6225;exitPerimeter=0;entryX=0.122;entryY=0.989;entryDx=0;entryDy=0;shadow=0;strokeColor=#737373;strokeWidth=1;fontSize=13;fontColor=#7ece78;entryPerimeter=0;" parent="1" source="uOWtn8zMzrbVdwkOui6t-36" target="uOWtn8zMzrbVdwkOui6t-29" edge="1">
          <mxGeometry relative="1" as="geometry">
            <Array as="points">
              <mxPoint x="-994.57" y="-1850" />
            </Array>
          </mxGeometry>
        </mxCell>
        <mxCell id="uOWtn8zMzrbVdwkOui6t-36" value="&lt;div data-en-clipboard=&quot;true&quot; data-pm-slice=&quot;1 1 []&quot;&gt;&lt;div data-en-clipboard=&quot;true&quot; data-pm-slice=&quot;1 1 []&quot;&gt;queue-planexhaustion-campaign&lt;/div&gt;&lt;/div&gt;" style="shape=cylinder3;whiteSpace=wrap;html=1;boundedLbl=1;backgroundOutline=1;size=15;labelBorderColor=none;fontSize=11;fillColor=#dae8fc;direction=south;strokeColor=#6c8ebf;strokeWidth=1;fontStyle=1;shadow=1;" parent="1" vertex="1">
          <mxGeometry x="-1148.49" y="-1805" width="128.49" height="60" as="geometry" />
        </mxCell>
        <mxCell id="uOWtn8zMzrbVdwkOui6t-37" value="Stream" style="text;html=1;strokeColor=none;fillColor=none;align=left;verticalAlign=middle;whiteSpace=wrap;rounded=0;fontStyle=1;fontSize=10;" parent="1" vertex="1">
          <mxGeometry x="-1027.02" y="-2015" width="60" height="20" as="geometry" />
        </mxCell>
        <mxCell id="uOWtn8zMzrbVdwkOui6t-38" style="edgeStyle=elbowEdgeStyle;rounded=1;sketch=0;orthogonalLoop=1;jettySize=auto;elbow=vertical;html=1;entryX=0.714;entryY=-0.011;entryDx=0;entryDy=0;shadow=0;strokeColor=#737373;strokeWidth=1;fontSize=12;fontColor=#7ece78;exitX=0.605;exitY=1.014;exitDx=0;exitDy=0;exitPerimeter=0;entryPerimeter=0;" parent="1" source="uOWtn8zMzrbVdwkOui6t-39" target="uOWtn8zMzrbVdwkOui6t-10" edge="1">
          <mxGeometry relative="1" as="geometry">
            <mxPoint x="-830" y="-2120" as="sourcePoint" />
          </mxGeometry>
        </mxCell>
        <mxCell id="uOWtn8zMzrbVdwkOui6t-39" value="&lt;div data-en-clipboard=&quot;true&quot; data-pm-slice=&quot;1 1 []&quot; style=&quot;font-size: 12px;&quot;&gt;Redis Entities&lt;/div&gt;" style="rounded=0;whiteSpace=wrap;html=1;labelBorderColor=none;fontSize=12;strokeWidth=1;shadow=1;fontStyle=1;align=center;strokeColor=#FF0000;" parent="1" vertex="1">
          <mxGeometry x="-979.65" y="-2215" width="178.65" height="100" as="geometry" />
        </mxCell>
        <mxCell id="uOWtn8zMzrbVdwkOui6t-40" style="edgeStyle=elbowEdgeStyle;rounded=1;sketch=0;orthogonalLoop=1;jettySize=auto;elbow=vertical;html=1;exitX=1;exitY=0.5;exitDx=0;exitDy=0;shadow=0;strokeColor=#000000;strokeWidth=1;fontSize=13;fontColor=#7ece78;" parent="1" source="uOWtn8zMzrbVdwkOui6t-39" target="uOWtn8zMzrbVdwkOui6t-39" edge="1">
          <mxGeometry relative="1" as="geometry" />
        </mxCell>
        <mxCell id="uOWtn8zMzrbVdwkOui6t-41" value="REDIS" style="text;html=1;strokeColor=none;fillColor=none;align=left;verticalAlign=middle;whiteSpace=wrap;rounded=0;fontStyle=1;fontSize=13;" parent="1" vertex="1">
          <mxGeometry x="-978.6500000000001" y="-2215" width="60" height="20" as="geometry" />
        </mxCell>
        <mxCell id="uOWtn8zMzrbVdwkOui6t-42" style="edgeStyle=elbowEdgeStyle;rounded=1;sketch=0;orthogonalLoop=1;jettySize=auto;elbow=vertical;html=1;exitX=0.5;exitY=0;exitDx=0;exitDy=0;shadow=0;strokeColor=#737373;strokeWidth=1;fontSize=13;fontColor=#7ece78;entryX=0.5;entryY=1;entryDx=0;entryDy=0;" parent="1" source="uOWtn8zMzrbVdwkOui6t-10" target="uOWtn8zMzrbVdwkOui6t-43" edge="1">
          <mxGeometry relative="1" as="geometry" />
        </mxCell>
        <mxCell id="uOWtn8zMzrbVdwkOui6t-43" value="&amp;nbsp;CUSTOMER_CONTACT&lt;br&gt;SMS_EXHAUSTION_PLAN&lt;br&gt;SMS_START_PACKAGE" style="rounded=1;whiteSpace=wrap;html=1;labelBorderColor=none;fontSize=11;strokeWidth=1;strokeColor=#b85450;shadow=1;fontStyle=0;align=center;fillColor=#FFF1ED;" parent="1" vertex="1">
          <mxGeometry x="-1229.4499999999998" y="-2191" width="210" height="60" as="geometry" />
        </mxCell>
        <mxCell id="uOWtn8zMzrbVdwkOui6t-44" value="ORACLE - SCHEMA: CAMPSYS" style="text;html=1;strokeColor=none;fillColor=none;align=left;verticalAlign=middle;whiteSpace=wrap;rounded=0;fontStyle=1;fontSize=13;" parent="1" vertex="1">
          <mxGeometry x="-1474.57" y="-2216" width="204.57" height="20" as="geometry" />
        </mxCell>
        <mxCell id="uOWtn8zMzrbVdwkOui6t-45" style="edgeStyle=elbowEdgeStyle;rounded=1;sketch=0;orthogonalLoop=1;jettySize=auto;elbow=vertical;html=1;exitX=0.75;exitY=1;exitDx=0;exitDy=0;entryX=0.444;entryY=0;entryDx=0;entryDy=0;shadow=0;strokeColor=#737373;strokeWidth=1;fontSize=12;fontColor=#7ece78;entryPerimeter=0;" parent="1" source="uOWtn8zMzrbVdwkOui6t-46" target="uOWtn8zMzrbVdwkOui6t-11" edge="1">
          <mxGeometry relative="1" as="geometry">
            <Array as="points">
              <mxPoint x="-1280" y="-2080" />
            </Array>
          </mxGeometry>
        </mxCell>
        <mxCell id="uOWtn8zMzrbVdwkOui6t-46" value="SMS_EXHAUSTION_PLAN&lt;br&gt;SMS_START_PACKAGE" style="rounded=1;whiteSpace=wrap;html=1;labelBorderColor=none;fontSize=11;strokeWidth=1;strokeColor=#b85450;shadow=1;fontStyle=0;align=center;fillColor=#FFF1ED;" parent="1" vertex="1">
          <mxGeometry x="-1454.48" y="-2191" width="210" height="60" as="geometry" />
        </mxCell>
        <mxCell id="uOWtn8zMzrbVdwkOui6t-47" style="edgeStyle=orthogonalEdgeStyle;rounded=1;orthogonalLoop=1;jettySize=auto;html=1;exitX=0.5;exitY=1;exitDx=0;exitDy=0;entryX=0.5;entryY=1;entryDx=0;entryDy=0;entryPerimeter=0;strokeColor=#FF99CC;strokeWidth=1;fontSize=8;fontColor=#EA6B66;dashed=1;dashPattern=1 1;" parent="1" source="uOWtn8zMzrbVdwkOui6t-48" target="uOWtn8zMzrbVdwkOui6t-18" edge="1">
          <mxGeometry relative="1" as="geometry" />
        </mxCell>
        <mxCell id="uOWtn8zMzrbVdwkOui6t-48" value="Eventos &lt;br&gt;de &lt;br&gt;Notificaciones Externas" style="rounded=1;whiteSpace=wrap;html=1;labelBorderColor=none;strokeWidth=1;fontSize=8;shadow=1;glass=0;strokeColor=#FF99CC;dashed=1;dashPattern=1 1;fillColor=#FFF2F9;" parent="1" vertex="1">
          <mxGeometry x="-1552.21" y="-2040" width="55.02" height="160" as="geometry" />
        </mxCell>
        <mxCell id="uOWtn8zMzrbVdwkOui6t-49" value="Envio de SMS" style="rounded=0;whiteSpace=wrap;html=1;shadow=1;glass=0;labelBorderColor=none;sketch=0;strokeWidth=1;fontSize=11;fillColor=#0050ef;strokeColor=#001DBC;fontColor=#ffffff;" parent="1" vertex="1">
          <mxGeometry x="-590" y="-1740" width="121" height="30" as="geometry" />
        </mxCell>
        <mxCell id="uOWtn8zMzrbVdwkOui6t-50" style="edgeStyle=orthogonalEdgeStyle;rounded=0;orthogonalLoop=1;jettySize=auto;html=1;exitX=1;exitY=0.5;exitDx=0;exitDy=0;fontColor=#666666;strokeColor=#666666;" parent="1" edge="1">
          <mxGeometry relative="1" as="geometry">
            <mxPoint x="-635.8500000000004" y="-1977" as="sourcePoint" />
            <mxPoint x="-589" y="-1977" as="targetPoint" />
          </mxGeometry>
        </mxCell>
        <mxCell id="uOWtn8zMzrbVdwkOui6t-51" style="edgeStyle=orthogonalEdgeStyle;rounded=0;orthogonalLoop=1;jettySize=auto;html=1;exitX=0.5;exitY=1;exitDx=0;exitDy=0;entryX=0.5;entryY=0;entryDx=0;entryDy=0;" parent="1" target="uOWtn8zMzrbVdwkOui6t-57" edge="1">
          <mxGeometry relative="1" as="geometry">
            <mxPoint x="-690.315" y="-1820" as="sourcePoint" />
          </mxGeometry>
        </mxCell>
        <mxCell id="uOWtn8zMzrbVdwkOui6t-52" value="&lt;a href=&quot;http://esbprodent.simple.gp.inet/productCatalog/v2/offerings?orderSubType=CAPL&amp;amp;sortCriteriaName=price&amp;amp;type=sugeridas&amp;amp;customerSegment=R&amp;amp;limit=6&amp;amp;customerId=115513441&amp;amp;creditLimit=150&amp;amp;action=CH&amp;amp;subscriberGroupValue=POS2&amp;amp;currentBillingOfferCatalogId=4417988&amp;amp;channelId=CC&amp;amp;productType=mobile&amp;amp;creditScore=2207&amp;amp;sortCriteriaAscending=FALSE&amp;amp;currentOfferingCatalogId=4417988&amp;amp;offset=1&amp;amp;dealerId=91042&amp;amp;excludeOffersId=1353611%2C2008713%2C55694%2C4417968%2C4269648%2C4396793&amp;amp;productPublicId=956855777&amp;amp;planRank=29&amp;amp;planRankInitial=29&amp;amp;isPortability=FALSE&amp;amp;sourceType=OFFER&amp;amp;siteId=61113005&amp;amp;typeRent=R&amp;amp;region=15&amp;amp;fields=PenaltyVal%3AN&amp;amp;categoryId=1221111%27&quot; style=&quot;cursor: pointer; overflow-wrap: break-word; text-decoration: inherit; font-size: 8px;&quot; class=&quot;notion-link-token notion-focusable-token notion-enable-hover&quot; rel=&quot;noopener noreferrer&quot; data-token-index=&quot;0&quot; tabindex=&quot;0&quot;&gt;&lt;font style=&quot;font-size: 8px;&quot; color=&quot;#0066cc&quot;&gt;esbprodent.simple.gp.inet&lt;/font&gt;&lt;/a&gt;" style="rounded=0;whiteSpace=wrap;html=1;labelBorderColor=none;fontSize=8;strokeColor=#0066CC;align=left;dashed=1;strokeWidth=1;dashPattern=1 4;fontColor=#0066CC;" parent="1" vertex="1">
          <mxGeometry x="-589" y="-2059" width="120" height="18" as="geometry" />
        </mxCell>
        <mxCell id="uOWtn8zMzrbVdwkOui6t-53" style="edgeStyle=orthogonalEdgeStyle;rounded=0;orthogonalLoop=1;jettySize=auto;html=1;exitX=0.01;exitY=0.86;exitDx=0;exitDy=0;exitPerimeter=0;entryX=1;entryY=0.5;entryDx=0;entryDy=0;fontColor=#666666;strokeColor=#666666;" parent="1" source="uOWtn8zMzrbVdwkOui6t-54" target="uOWtn8zMzrbVdwkOui6t-63" edge="1">
          <mxGeometry relative="1" as="geometry">
            <mxPoint x="-635.8500000000004" y="-1920" as="targetPoint" />
          </mxGeometry>
        </mxCell>
        <mxCell id="uOWtn8zMzrbVdwkOui6t-54" value="ESB&lt;br&gt;Product Catalog&lt;br&gt;&lt;br&gt;&lt;font style=&quot;font-size: 7px;&quot;&gt;&lt;b&gt;&lt;font style=&quot;font-size: 7px;&quot;&gt;/productCatalog/v2/offerings&lt;/font&gt;&lt;/b&gt;&lt;/font&gt;" style="rounded=0;whiteSpace=wrap;html=1;labelBorderColor=none;fontSize=10;fillColor=#b1ddf0;shadow=1;strokeColor=#10739e;points=[[0,0,0,0,0],[0,0.25,0,0,0],[0,0.3,0,0,0],[0,0.42,0,0,0],[0,0.55,0,0,0],[0,0.75,0,0,0],[0,1,0,0,0],[0.25,0,0,0,0],[0.25,1,0,0,0],[0.5,0,0,0,0],[0.5,1,0,0,0],[0.75,0,0,0,0],[0.75,1,0,0,0],[1,0,0,0,0],[1,0.25,0,0,0],[1,0.5,0,0,0],[1,0.75,0,0,0],[1,1,0,0,0]];" parent="1" vertex="1">
          <mxGeometry x="-589" y="-2040" width="120" height="150" as="geometry" />
        </mxCell>
        <mxCell id="uOWtn8zMzrbVdwkOui6t-55" value="apps.ocpprod.gp.inet" style="rounded=0;whiteSpace=wrap;html=1;labelBorderColor=none;fontSize=8;strokeColor=#CC0000;align=left;dashed=1;strokeWidth=1;dashPattern=1 4;fontColor=#CC0000;" parent="1" vertex="1">
          <mxGeometry x="-771.6299999999999" y="-2059" width="84.8" height="18" as="geometry" />
        </mxCell>
        <mxCell id="uOWtn8zMzrbVdwkOui6t-56" style="edgeStyle=orthogonalEdgeStyle;rounded=1;orthogonalLoop=1;jettySize=auto;html=1;exitX=1;exitY=0.5;exitDx=0;exitDy=0;strokeColor=#808080;" parent="1" source="uOWtn8zMzrbVdwkOui6t-57" target="uOWtn8zMzrbVdwkOui6t-60" edge="1">
          <mxGeometry relative="1" as="geometry">
            <Array as="points">
              <mxPoint x="-620" y="-1763" />
              <mxPoint x="-620" y="-1810" />
            </Array>
          </mxGeometry>
        </mxCell>
        <mxCell id="uOWtn8zMzrbVdwkOui6t-57" value="&lt;div data-en-clipboard=&quot;true&quot; data-pm-slice=&quot;1 1 []&quot; style=&quot;font-size: 11px;&quot;&gt;&lt;p class=&quot;MsoNormal&quot; style=&quot;font-size: 11px;&quot;&gt;&lt;i style=&quot;font-size: 11px;&quot;&gt;notify-all-subscribers&lt;/i&gt;&lt;/p&gt;&lt;/div&gt;" style="rounded=1;whiteSpace=wrap;html=1;labelBorderColor=none;strokeColor=#b85450;strokeWidth=1;fontSize=11;fillColor=#f8cecc;shadow=1;fontStyle=1" parent="1" vertex="1">
          <mxGeometry x="-744.75" y="-1791" width="108.87" height="55" as="geometry" />
        </mxCell>
        <mxCell id="uOWtn8zMzrbVdwkOui6t-58" style="edgeStyle=orthogonalEdgeStyle;rounded=0;orthogonalLoop=1;jettySize=auto;html=1;exitX=0.5;exitY=1;exitDx=0;exitDy=0;exitPerimeter=0;entryX=0.5;entryY=0;entryDx=0;entryDy=0;" parent="1" source="uOWtn8zMzrbVdwkOui6t-60" target="uOWtn8zMzrbVdwkOui6t-49" edge="1">
          <mxGeometry relative="1" as="geometry" />
        </mxCell>
        <mxCell id="uOWtn8zMzrbVdwkOui6t-59" value="" style="edgeStyle=orthogonalEdgeStyle;rounded=0;orthogonalLoop=1;jettySize=auto;html=1;" parent="1" source="uOWtn8zMzrbVdwkOui6t-60" target="uOWtn8zMzrbVdwkOui6t-49" edge="1">
          <mxGeometry relative="1" as="geometry" />
        </mxCell>
        <mxCell id="uOWtn8zMzrbVdwkOui6t-60" value="ESB&lt;br&gt;&lt;br&gt;Service Order Management&lt;br&gt;&lt;font style=&quot;font-size: 7px;&quot;&gt;&lt;b&gt;/ServiceOrderManagement&lt;br&gt;/ServiceActivationManagement&lt;br&gt;/Notification/V1&lt;/b&gt;&lt;/font&gt;" style="rounded=0;whiteSpace=wrap;html=1;labelBorderColor=none;fontSize=10;fillColor=#b1ddf0;shadow=1;strokeColor=#10739e;points=[[0,0,0,0,0],[0,0.25,0,0,0],[0,0.3,0,0,0],[0,0.5,0,0,0],[0,0.55,0,0,0],[0,0.75,0,0,0],[0,1,0,0,0],[0.25,0,0,0,0],[0.25,1,0,0,0],[0.5,0,0,0,0],[0.5,1,0,0,0],[0.75,0,0,0,0],[0.75,1,0,0,0],[1,0,0,0,0],[1,0.25,0,0,0],[1,0.5,0,0,0],[1,0.75,0,0,0],[1,1,0,0,0]];" parent="1" vertex="1">
          <mxGeometry x="-590.41" y="-1860" width="121.41" height="100" as="geometry" />
        </mxCell>
        <mxCell id="uOWtn8zMzrbVdwkOui6t-61" value="esbprodnot.simple.gp.inet" style="rounded=0;whiteSpace=wrap;html=1;labelBorderColor=none;fontSize=8;strokeColor=#0066CC;align=left;dashed=1;strokeWidth=1;dashPattern=1 4;fontColor=#0066CC;" parent="1" vertex="1">
          <mxGeometry x="-590.41" y="-1880" width="121.41" height="18" as="geometry" />
        </mxCell>
        <mxCell id="uOWtn8zMzrbVdwkOui6t-62" value="&lt;div data-en-clipboard=&quot;true&quot; data-pm-slice=&quot;1 1 []&quot; style=&quot;font-size: 11px;&quot;&gt;&lt;p class=&quot;MsoNormal&quot; style=&quot;font-size: 11px;&quot;&gt;&lt;i style=&quot;border-color: var(--border-color);&quot;&gt;sms-api&lt;/i&gt;&lt;br&gt;&lt;/p&gt;&lt;/div&gt;" style="rounded=1;whiteSpace=wrap;html=1;labelBorderColor=none;strokeColor=#b85450;strokeWidth=1;fontSize=11;fillColor=#f8cecc;shadow=1;fontStyle=1" parent="1" vertex="1">
          <mxGeometry x="-741.75" y="-1863" width="108.87" height="55" as="geometry" />
        </mxCell>
        <mxCell id="uOWtn8zMzrbVdwkOui6t-63" value="&lt;div data-en-clipboard=&quot;true&quot; data-pm-slice=&quot;1 1 []&quot; style=&quot;font-size: 11px;&quot;&gt;&lt;p class=&quot;MsoNormal&quot; style=&quot;font-size: 11px;&quot;&gt;&lt;i style=&quot;border-color: var(--border-color);&quot;&gt;shaka-offers&lt;/i&gt;&lt;br&gt;&lt;/p&gt;&lt;/div&gt;" style="rounded=1;whiteSpace=wrap;html=1;labelBorderColor=none;strokeColor=#b85450;strokeWidth=1;fontSize=11;fillColor=#f8cecc;shadow=1;fontStyle=1" parent="1" vertex="1">
          <mxGeometry x="-740.91" y="-1938" width="108.87" height="55" as="geometry" />
        </mxCell>
        <mxCell id="uOWtn8zMzrbVdwkOui6t-64" value="&lt;div data-en-clipboard=&quot;true&quot; data-pm-slice=&quot;1 1 []&quot; style=&quot;font-size: 11px;&quot;&gt;&lt;p class=&quot;MsoNormal&quot; style=&quot;font-size: 11px;&quot;&gt;&lt;i style=&quot;border-color: var(--border-color);&quot;&gt;customer-offers&lt;/i&gt;&lt;br&gt;&lt;/p&gt;&lt;/div&gt;" style="rounded=1;whiteSpace=wrap;html=1;labelBorderColor=none;strokeColor=#b85450;strokeWidth=1;fontSize=11;fillColor=#f8cecc;shadow=1;fontStyle=1" parent="1" vertex="1">
          <mxGeometry x="-741.29" y="-2005" width="108.87" height="55" as="geometry" />
        </mxCell>
        <mxCell id="uOWtn8zMzrbVdwkOui6t-66" value="Servidores&lt;br style=&quot;font-size: 8px;&quot;&gt;&lt;div&gt;10.4.88.109,&amp;nbsp;&lt;span style=&quot;background-color: initial;&quot;&gt;10.4.88.119,&lt;/span&gt;&lt;/div&gt;&lt;div&gt;&lt;div style=&quot;border-color: var(--border-color);&quot;&gt;10.4.88.138,&amp;nbsp;&lt;span style=&quot;background-color: initial;&quot;&gt;10.4.88.144&lt;/span&gt;&lt;/div&gt;&lt;/div&gt;" style="rounded=0;whiteSpace=wrap;html=1;labelBorderColor=none;fontSize=8;strokeColor=#004C99;align=left;dashed=1;strokeWidth=1;dashPattern=1 4;fontColor=#004C99;" parent="1" vertex="1">
          <mxGeometry x="-1479.99" y="-1080" width="104.57" height="30" as="geometry" />
        </mxCell>
        <mxCell id="uOWtn8zMzrbVdwkOui6t-67" value="" style="rounded=0;whiteSpace=wrap;html=1;labelBorderColor=none;fontSize=11;fillColor=default;strokeColor=#59759E;strokeWidth=1;shadow=1;" parent="1" vertex="1">
          <mxGeometry x="-1479.99" y="-1200" width="429.99" height="120" as="geometry" />
        </mxCell>
        <mxCell id="uOWtn8zMzrbVdwkOui6t-84" style="rounded=0;orthogonalLoop=1;jettySize=auto;html=1;exitX=0.5;exitY=0;exitDx=0;exitDy=0;exitPerimeter=0;entryX=0.25;entryY=1;entryDx=0;entryDy=0;" parent="1" source="uOWtn8zMzrbVdwkOui6t-68" target="uOWtn8zMzrbVdwkOui6t-72" edge="1">
          <mxGeometry relative="1" as="geometry" />
        </mxCell>
        <mxCell id="uOWtn8zMzrbVdwkOui6t-68" value="queue-user-email" style="shape=cylinder3;whiteSpace=wrap;html=1;boundedLbl=1;backgroundOutline=1;size=15;labelBorderColor=none;fontSize=11;fillColor=#dae8fc;direction=south;strokeColor=#6c8ebf;strokeWidth=1;fontStyle=1;shadow=1;" parent="1" vertex="1">
          <mxGeometry x="-1434.4699999999998" y="-1165" width="128.49" height="60" as="geometry" />
        </mxCell>
        <mxCell id="uOWtn8zMzrbVdwkOui6t-69" value="&lt;div data-en-clipboard=&quot;true&quot; data-pm-slice=&quot;1 1 []&quot;&gt;queue-feedback-email&lt;/div&gt;" style="shape=cylinder3;whiteSpace=wrap;html=1;boundedLbl=1;backgroundOutline=1;size=15;labelBorderColor=none;fontSize=11;fillColor=#dae8fc;direction=south;strokeColor=#6c8ebf;strokeWidth=1;fontStyle=1;shadow=1;" parent="1" vertex="1">
          <mxGeometry x="-1204.0600000000002" y="-1165" width="128.49" height="60" as="geometry" />
        </mxCell>
        <mxCell id="uOWtn8zMzrbVdwkOui6t-70" value="Servidores&lt;br style=&quot;font-size: 8px;&quot;&gt;10.4.88.61:9393&lt;div data-en-clipboard=&quot;true&quot; data-pm-slice=&quot;1 1 []&quot; style=&quot;font-size: 8px;&quot;&gt;10.4.88.147:9393&lt;br style=&quot;font-size: 8px;&quot;&gt;&lt;/div&gt;&lt;div data-en-clipboard=&quot;true&quot; data-pm-slice=&quot;1 1 []&quot; style=&quot;font-size: 8px;&quot;&gt;10.4.88.148:9393&lt;br style=&quot;font-size: 8px;&quot;&gt;&lt;/div&gt;" style="rounded=0;whiteSpace=wrap;html=1;labelBorderColor=none;fontSize=8;strokeColor=#67AB9F;align=left;dashed=1;strokeWidth=1;dashPattern=1 4;fontColor=#4D8077;" parent="1" vertex="1">
          <mxGeometry x="-1240" y="-1382" width="84.8" height="40" as="geometry" />
        </mxCell>
        <mxCell id="uOWtn8zMzrbVdwkOui6t-73" value="SCDF" style="text;html=1;strokeColor=none;fillColor=none;align=left;verticalAlign=middle;whiteSpace=wrap;rounded=0;fontStyle=1;fontSize=13;" parent="1" vertex="1">
          <mxGeometry x="-1240" y="-1343.5" width="60" height="20" as="geometry" />
        </mxCell>
        <mxCell id="uOWtn8zMzrbVdwkOui6t-74" value="Stream" style="text;html=1;strokeColor=none;fillColor=none;align=left;verticalAlign=middle;whiteSpace=wrap;rounded=0;fontStyle=1;fontSize=10;" parent="1" vertex="1">
          <mxGeometry x="-1210" y="-1323.5" width="60" height="20" as="geometry" />
        </mxCell>
        <mxCell id="uOWtn8zMzrbVdwkOui6t-75" value="KAFKA" style="text;html=1;strokeColor=none;fillColor=none;align=left;verticalAlign=middle;whiteSpace=wrap;rounded=0;fontStyle=1;fontSize=13;" parent="1" vertex="1">
          <mxGeometry x="-1479.99" y="-1200" width="60" height="20" as="geometry" />
        </mxCell>
        <mxCell id="uOWtn8zMzrbVdwkOui6t-76" value="" style="rounded=0;whiteSpace=wrap;html=1;labelBorderColor=none;fontSize=11;fillColor=default;shadow=1;strokeColor=#FF9999;" parent="1" vertex="1">
          <mxGeometry x="-1479.99" y="-1341" width="219.99" height="121" as="geometry" />
        </mxCell>
        <mxCell id="uOWtn8zMzrbVdwkOui6t-77" value="OPENSHIFT" style="text;html=1;strokeColor=none;fillColor=none;align=left;verticalAlign=middle;whiteSpace=wrap;rounded=0;fontStyle=1;fontSize=13;" parent="1" vertex="1">
          <mxGeometry x="-1479.9899999999998" y="-1341" width="78.06" height="20" as="geometry" />
        </mxCell>
        <mxCell id="uOWtn8zMzrbVdwkOui6t-78" value="apps.ocpprod.gp.inet" style="rounded=0;whiteSpace=wrap;html=1;labelBorderColor=none;fontSize=8;strokeColor=#CC0000;align=left;dashed=1;strokeWidth=1;dashPattern=1 4;fontColor=#CC0000;" parent="1" vertex="1">
          <mxGeometry x="-1479.9899999999998" y="-1360" width="84.8" height="18" as="geometry" />
        </mxCell>
        <mxCell id="uOWtn8zMzrbVdwkOui6t-79" value="&lt;div data-en-clipboard=&quot;true&quot; data-pm-slice=&quot;1 1 []&quot; style=&quot;font-size: 11px;&quot;&gt;&lt;p class=&quot;MsoNormal&quot; style=&quot;font-size: 11px;&quot;&gt;&lt;i style=&quot;border-color: var(--border-color);&quot;&gt;ms-campaign-notify-customer-email&lt;/i&gt;&lt;br&gt;&lt;/p&gt;&lt;/div&gt;" style="rounded=1;whiteSpace=wrap;html=1;labelBorderColor=none;strokeColor=#b85450;strokeWidth=1;fontSize=11;fillColor=#f8cecc;shadow=1;fontStyle=1" parent="1" vertex="1">
          <mxGeometry x="-1460.44" y="-1303.5" width="180.44" height="55" as="geometry" />
        </mxCell>
        <mxCell id="uOWtn8zMzrbVdwkOui6t-80" value="esbprodnot.simple.gp.inet" style="rounded=0;whiteSpace=wrap;html=1;labelBorderColor=none;fontSize=8;strokeColor=#0066CC;align=left;dashed=1;strokeWidth=1;dashPattern=1 4;fontColor=#0066CC;" parent="1" vertex="1">
          <mxGeometry x="-1479.99" y="-1511" width="120" height="18" as="geometry" />
        </mxCell>
        <mxCell id="uOWtn8zMzrbVdwkOui6t-81" value="ESB&lt;br&gt;&lt;b&gt;&lt;font style=&quot;font-size: 9px;&quot;&gt;ServiceOrderManagement&lt;/font&gt;&lt;/b&gt;&lt;br&gt;&lt;b style=&quot;font-size: 7px;&quot;&gt;&lt;br&gt;/ServiceOrderManagement&lt;br&gt;/ServiceActivationManagement&lt;br&gt;/Notification/V1&lt;/b&gt;" style="rounded=0;whiteSpace=wrap;html=1;labelBorderColor=none;fontSize=10;fillColor=#b1ddf0;shadow=1;strokeColor=#10739e;points=[[0,0,0,0,0],[0,0.25,0,0,0],[0,0.3,0,0,0],[0,0.42,0,0,0],[0,0.55,0,0,0],[0,0.75,0,0,0],[0,1,0,0,0],[0.25,0,0,0,0],[0.25,1,0,0,0],[0.5,0,0,0,0],[0.5,1,0,0,0],[0.75,0,0,0,0],[0.75,1,0,0,0],[1,0,0,0,0],[1,0.25,0,0,0],[1,0.5,0,0,0],[1,0.75,0,0,0],[1,1,0,0,0]];" parent="1" vertex="1">
          <mxGeometry x="-1479.99" y="-1493" width="120" height="99" as="geometry" />
        </mxCell>
        <mxCell id="uOWtn8zMzrbVdwkOui6t-85" style="edgeStyle=orthogonalEdgeStyle;rounded=0;orthogonalLoop=1;jettySize=auto;html=1;exitX=0.5;exitY=1;exitDx=0;exitDy=0;" parent="1" source="uOWtn8zMzrbVdwkOui6t-72" target="uOWtn8zMzrbVdwkOui6t-69" edge="1">
          <mxGeometry relative="1" as="geometry" />
        </mxCell>
        <mxCell id="uOWtn8zMzrbVdwkOui6t-72" value="&lt;div data-en-clipboard=&quot;true&quot; data-pm-slice=&quot;1 1 []&quot; style=&quot;font-size: 11px;&quot;&gt;ms-campaign-notify-&lt;/div&gt;&lt;div data-en-clipboard=&quot;true&quot; data-pm-slice=&quot;1 1 []&quot; style=&quot;font-size: 11px;&quot;&gt;user-email-stream&lt;/div&gt;" style="rounded=1;whiteSpace=wrap;html=1;labelBorderColor=none;strokeColor=#0e8088;strokeWidth=1;fontSize=11;fillColor=#b0e3e6;fontStyle=1;shadow=1;" parent="1" vertex="1">
          <mxGeometry x="-1210" y="-1303.5" width="138.99" height="53.5" as="geometry" />
        </mxCell>
        <mxCell id="uOWtn8zMzrbVdwkOui6t-83" style="edgeStyle=orthogonalEdgeStyle;rounded=0;orthogonalLoop=1;jettySize=auto;html=1;exitX=0.5;exitY=1;exitDx=0;exitDy=0;entryX=0;entryY=0.5;entryDx=0;entryDy=0;entryPerimeter=0;" parent="1" source="uOWtn8zMzrbVdwkOui6t-79" target="uOWtn8zMzrbVdwkOui6t-68" edge="1">
          <mxGeometry relative="1" as="geometry" />
        </mxCell>
        <mxCell id="uOWtn8zMzrbVdwkOui6t-86" value="SMTP TELEFONICA&lt;br&gt;&lt;br style=&quot;font-size: 8px;&quot;&gt;smtp.office365.com:587&lt;br&gt;&lt;br&gt;campanas.&lt;br&gt;notificaciones.&lt;br&gt;smtp@outlook.com" style="rounded=0;whiteSpace=wrap;html=1;fillColor=#FFFFFF;strokeColor=#FF0080;fontColor=#000000;shadow=1;fontSize=8;" parent="1" vertex="1">
          <mxGeometry x="-1350" y="-1493.5" width="90" height="100" as="geometry" />
        </mxCell>
        <mxCell id="uOWtn8zMzrbVdwkOui6t-87" value="" style="rounded=0;whiteSpace=wrap;html=1;labelBorderColor=none;fontSize=11;strokeWidth=1;strokeColor=#B5739D;shadow=1;fontStyle=1;align=center;" parent="1" vertex="1">
          <mxGeometry x="-1240" y="-1493" width="190" height="100" as="geometry" />
        </mxCell>
        <mxCell id="uOWtn8zMzrbVdwkOui6t-88" value="ORACLE - SCHEMA: CAMPSYS" style="text;html=1;strokeColor=none;fillColor=none;align=left;verticalAlign=middle;whiteSpace=wrap;rounded=0;fontStyle=1;fontSize=11;" parent="1" vertex="1">
          <mxGeometry x="-1240" y="-1493" width="183.6" height="20" as="geometry" />
        </mxCell>
        <mxCell id="uOWtn8zMzrbVdwkOui6t-89" value="SERVER_CONFIG" style="rounded=1;whiteSpace=wrap;html=1;labelBorderColor=none;fontSize=11;strokeWidth=1;strokeColor=#b85450;shadow=1;fontStyle=0;align=center;fillColor=#FFF1ED;" parent="1" vertex="1">
          <mxGeometry x="-1216.76" y="-1460" width="143.51" height="44.5" as="geometry" />
        </mxCell>
        <mxCell id="uOWtn8zMzrbVdwkOui6t-90" value="&lt;font color=&quot;#000000&quot; style=&quot;font-size: 8px;&quot;&gt;SMTP TELEFONICA&lt;br style=&quot;font-size: 8px;&quot;&gt;&lt;br style=&quot;font-size: 8px;&quot;&gt;10.226.5.191:25&lt;br style=&quot;font-size: 8px;&quot;&gt;&amp;nbsp;&lt;/font&gt;&lt;font color=&quot;#000000&quot; style=&quot;font-size: 8px;&quot;&gt;campaign.notification&lt;br style=&quot;font-size: 8px;&quot;&gt;@movistar.com.pe&lt;/font&gt;" style="rounded=0;whiteSpace=wrap;html=1;fillColor=#FFFFFF;strokeColor=#FF0080;fontColor=#ffffff;shadow=1;fontSize=8;" parent="1" vertex="1">
          <mxGeometry x="-1030" y="-1342.75" width="90" height="123.5" as="geometry" />
        </mxCell>
        <mxCell id="3cXwZaOKQ93qKa8AkUU2-1" style="edgeStyle=orthogonalEdgeStyle;rounded=0;orthogonalLoop=1;jettySize=auto;html=1;exitX=0.5;exitY=0;exitDx=0;exitDy=0;entryX=0.914;entryY=0.999;entryDx=0;entryDy=0;entryPerimeter=0;" edge="1" parent="1" source="uOWtn8zMzrbVdwkOui6t-76" target="uOWtn8zMzrbVdwkOui6t-81">
          <mxGeometry relative="1" as="geometry" />
        </mxCell>
        <mxCell id="3cXwZaOKQ93qKa8AkUU2-4" value="/sendCustomerEmail" style="text;html=1;strokeColor=none;fillColor=none;align=center;verticalAlign=middle;whiteSpace=wrap;rounded=0;fontSize=9;" vertex="1" parent="1">
          <mxGeometry x="-1460" y="-1382" width="90" height="12" as="geometry" />
        </mxCell>
        <mxCell id="3cXwZaOKQ93qKa8AkUU2-5" value="/sendEmail" style="text;html=1;strokeColor=none;fillColor=none;align=center;verticalAlign=middle;whiteSpace=wrap;rounded=0;fontSize=9;" vertex="1" parent="1">
          <mxGeometry x="-1330" y="-1382" width="50" height="12" as="geometry" />
        </mxCell>
        <mxCell id="3cXwZaOKQ93qKa8AkUU2-6" style="edgeStyle=orthogonalEdgeStyle;rounded=0;orthogonalLoop=1;jettySize=auto;html=1;exitX=0.5;exitY=0;exitDx=0;exitDy=0;entryX=0.914;entryY=0.999;entryDx=0;entryDy=0;entryPerimeter=0;" edge="1" parent="1">
          <mxGeometry relative="1" as="geometry">
            <mxPoint x="-1280.49" y="-1341" as="sourcePoint" />
            <mxPoint x="-1280.49" y="-1394" as="targetPoint" />
            <Array as="points">
              <mxPoint x="-1280" y="-1360" />
              <mxPoint x="-1280" y="-1360" />
            </Array>
          </mxGeometry>
        </mxCell>
        <mxCell id="3cXwZaOKQ93qKa8AkUU2-7" value="/sendUserEmail" style="text;html=1;strokeColor=none;fillColor=none;align=center;verticalAlign=middle;whiteSpace=wrap;rounded=0;fontSize=9;" vertex="1" parent="1">
          <mxGeometry x="-1441" y="-1216.25" width="70" height="12" as="geometry" />
        </mxCell>
      </root>
    </mxGraphModel>
  </diagram>
  <diagram id="6SqQ3upr4dafK1Azz26w" name="PÃ¡gina-2">
    <mxGraphModel dx="2142" dy="1785" grid="1" gridSize="10" guides="1" tooltips="1" connect="1" arrows="1" fold="1" page="1" pageScale="1" pageWidth="1654" pageHeight="1169" math="0" shadow="0">
      <root>
        <mxCell id="0" />
        <mxCell id="1" parent="0" />
        <mxCell id="4uE3Bu7b8onDfHIBqHJn-1" value="" style="rounded=0;whiteSpace=wrap;html=1;" vertex="1" parent="1">
          <mxGeometry x="-1610" y="-1130" width="600" height="520" as="geometry" />
        </mxCell>
        <mxCell id="YMpiUgYcL-dhUj2A1P1a-1" style="edgeStyle=orthogonalEdgeStyle;rounded=0;orthogonalLoop=1;jettySize=auto;html=1;exitX=0.5;exitY=0;exitDx=0;exitDy=0;entryX=0.5;entryY=1;entryDx=0;entryDy=0;" edge="1" parent="1" source="YMpiUgYcL-dhUj2A1P1a-3" target="YMpiUgYcL-dhUj2A1P1a-23">
          <mxGeometry relative="1" as="geometry" />
        </mxCell>
        <mxCell id="YMpiUgYcL-dhUj2A1P1a-2" style="edgeStyle=orthogonalEdgeStyle;rounded=0;orthogonalLoop=1;jettySize=auto;html=1;exitX=1;exitY=0.5;exitDx=0;exitDy=0;entryX=0;entryY=0.5;entryDx=0;entryDy=0;" edge="1" parent="1" source="YMpiUgYcL-dhUj2A1P1a-3" target="YMpiUgYcL-dhUj2A1P1a-26">
          <mxGeometry relative="1" as="geometry" />
        </mxCell>
        <mxCell id="YMpiUgYcL-dhUj2A1P1a-3" value="" style="rounded=0;whiteSpace=wrap;html=1;labelBorderColor=none;fontSize=11;fillColor=default;strokeColor=#67AB9F;shadow=1;" vertex="1" parent="1">
          <mxGeometry x="-1340.01" y="-931" width="190" height="122" as="geometry" />
        </mxCell>
        <mxCell id="YMpiUgYcL-dhUj2A1P1a-4" value="Servidores&lt;br style=&quot;font-size: 8px;&quot;&gt;&lt;div&gt;10.4.88.109,&amp;nbsp;&lt;span style=&quot;background-color: initial;&quot;&gt;10.4.88.119,&lt;/span&gt;&lt;/div&gt;&lt;div&gt;&lt;div style=&quot;border-color: var(--border-color);&quot;&gt;10.4.88.138,&amp;nbsp;&lt;span style=&quot;background-color: initial;&quot;&gt;10.4.88.144&lt;/span&gt;&lt;/div&gt;&lt;/div&gt;" style="rounded=0;whiteSpace=wrap;html=1;labelBorderColor=none;fontSize=8;strokeColor=#004C99;align=left;dashed=1;strokeWidth=1;dashPattern=1 4;fontColor=#004C99;" vertex="1" parent="1">
          <mxGeometry x="-1580" y="-669" width="104.57" height="30" as="geometry" />
        </mxCell>
        <mxCell id="YMpiUgYcL-dhUj2A1P1a-5" value="" style="rounded=0;whiteSpace=wrap;html=1;labelBorderColor=none;fontSize=11;fillColor=default;strokeColor=#59759E;strokeWidth=1;shadow=1;" vertex="1" parent="1">
          <mxGeometry x="-1580" y="-789" width="429.99" height="120" as="geometry" />
        </mxCell>
        <mxCell id="YMpiUgYcL-dhUj2A1P1a-6" style="rounded=0;orthogonalLoop=1;jettySize=auto;html=1;exitX=0.5;exitY=0;exitDx=0;exitDy=0;exitPerimeter=0;entryX=0.25;entryY=1;entryDx=0;entryDy=0;" edge="1" parent="1" source="YMpiUgYcL-dhUj2A1P1a-7" target="YMpiUgYcL-dhUj2A1P1a-20">
          <mxGeometry relative="1" as="geometry" />
        </mxCell>
        <mxCell id="YMpiUgYcL-dhUj2A1P1a-7" value="queue-user-email" style="shape=cylinder3;whiteSpace=wrap;html=1;boundedLbl=1;backgroundOutline=1;size=15;labelBorderColor=none;fontSize=11;fillColor=#dae8fc;direction=south;strokeColor=#6c8ebf;strokeWidth=1;fontStyle=1;shadow=1;" vertex="1" parent="1">
          <mxGeometry x="-1534.4799999999998" y="-754" width="128.49" height="60" as="geometry" />
        </mxCell>
        <mxCell id="YMpiUgYcL-dhUj2A1P1a-8" value="&lt;div data-en-clipboard=&quot;true&quot; data-pm-slice=&quot;1 1 []&quot;&gt;queue-feedback-email&lt;/div&gt;" style="shape=cylinder3;whiteSpace=wrap;html=1;boundedLbl=1;backgroundOutline=1;size=15;labelBorderColor=none;fontSize=11;fillColor=#dae8fc;direction=south;strokeColor=#6c8ebf;strokeWidth=1;fontStyle=1;shadow=1;" vertex="1" parent="1">
          <mxGeometry x="-1304.0700000000002" y="-754" width="128.49" height="60" as="geometry" />
        </mxCell>
        <mxCell id="YMpiUgYcL-dhUj2A1P1a-9" value="Servidores&lt;br style=&quot;font-size: 8px;&quot;&gt;10.4.88.61:9393&lt;div data-en-clipboard=&quot;true&quot; data-pm-slice=&quot;1 1 []&quot; style=&quot;font-size: 8px;&quot;&gt;10.4.88.147:9393&lt;br style=&quot;font-size: 8px;&quot;&gt;&lt;/div&gt;&lt;div data-en-clipboard=&quot;true&quot; data-pm-slice=&quot;1 1 []&quot; style=&quot;font-size: 8px;&quot;&gt;10.4.88.148:9393&lt;br style=&quot;font-size: 8px;&quot;&gt;&lt;/div&gt;" style="rounded=0;whiteSpace=wrap;html=1;labelBorderColor=none;fontSize=8;strokeColor=#67AB9F;align=left;dashed=1;strokeWidth=1;dashPattern=1 4;fontColor=#4D8077;" vertex="1" parent="1">
          <mxGeometry x="-1340.01" y="-971" width="84.8" height="40" as="geometry" />
        </mxCell>
        <mxCell id="YMpiUgYcL-dhUj2A1P1a-10" value="SCDF" style="text;html=1;strokeColor=none;fillColor=none;align=left;verticalAlign=middle;whiteSpace=wrap;rounded=0;fontStyle=1;fontSize=13;" vertex="1" parent="1">
          <mxGeometry x="-1340.01" y="-932.5" width="60" height="20" as="geometry" />
        </mxCell>
        <mxCell id="YMpiUgYcL-dhUj2A1P1a-11" value="Stream" style="text;html=1;strokeColor=none;fillColor=none;align=left;verticalAlign=middle;whiteSpace=wrap;rounded=0;fontStyle=1;fontSize=10;" vertex="1" parent="1">
          <mxGeometry x="-1310.01" y="-912.5" width="60" height="20" as="geometry" />
        </mxCell>
        <mxCell id="YMpiUgYcL-dhUj2A1P1a-12" value="KAFKA" style="text;html=1;strokeColor=none;fillColor=none;align=left;verticalAlign=middle;whiteSpace=wrap;rounded=0;fontStyle=1;fontSize=13;" vertex="1" parent="1">
          <mxGeometry x="-1580" y="-789" width="60" height="20" as="geometry" />
        </mxCell>
        <mxCell id="YMpiUgYcL-dhUj2A1P1a-13" value="" style="rounded=0;whiteSpace=wrap;html=1;labelBorderColor=none;fontSize=11;fillColor=default;shadow=1;strokeColor=#FF9999;" vertex="1" parent="1">
          <mxGeometry x="-1580" y="-930" width="219.99" height="121" as="geometry" />
        </mxCell>
        <mxCell id="YMpiUgYcL-dhUj2A1P1a-14" value="OPENSHIFT" style="text;html=1;strokeColor=none;fillColor=none;align=left;verticalAlign=middle;whiteSpace=wrap;rounded=0;fontStyle=1;fontSize=13;" vertex="1" parent="1">
          <mxGeometry x="-1579.9999999999998" y="-930" width="78.06" height="20" as="geometry" />
        </mxCell>
        <mxCell id="YMpiUgYcL-dhUj2A1P1a-15" value="apps.ocpprod.gp.inet" style="rounded=0;whiteSpace=wrap;html=1;labelBorderColor=none;fontSize=8;strokeColor=#CC0000;align=left;dashed=1;strokeWidth=1;dashPattern=1 4;fontColor=#CC0000;" vertex="1" parent="1">
          <mxGeometry x="-1579.9999999999998" y="-949" width="84.8" height="18" as="geometry" />
        </mxCell>
        <mxCell id="YMpiUgYcL-dhUj2A1P1a-16" value="&lt;div data-en-clipboard=&quot;true&quot; data-pm-slice=&quot;1 1 []&quot; style=&quot;font-size: 11px;&quot;&gt;&lt;p class=&quot;MsoNormal&quot; style=&quot;font-size: 11px;&quot;&gt;&lt;i style=&quot;border-color: var(--border-color);&quot;&gt;ms-campaign-notify-customer-email&lt;/i&gt;&lt;br&gt;&lt;/p&gt;&lt;/div&gt;" style="rounded=1;whiteSpace=wrap;html=1;labelBorderColor=none;strokeColor=#b85450;strokeWidth=1;fontSize=11;fillColor=#f8cecc;shadow=1;fontStyle=1" vertex="1" parent="1">
          <mxGeometry x="-1560.45" y="-892.5" width="180.44" height="55" as="geometry" />
        </mxCell>
        <mxCell id="YMpiUgYcL-dhUj2A1P1a-17" value="esbprodnot.simple.gp.inet" style="rounded=0;whiteSpace=wrap;html=1;labelBorderColor=none;fontSize=8;strokeColor=#0066CC;align=left;dashed=1;strokeWidth=1;dashPattern=1 4;fontColor=#0066CC;" vertex="1" parent="1">
          <mxGeometry x="-1580" y="-1100" width="120" height="18" as="geometry" />
        </mxCell>
        <mxCell id="YMpiUgYcL-dhUj2A1P1a-18" value="ESB&lt;br&gt;&lt;b&gt;&lt;font style=&quot;font-size: 9px;&quot;&gt;ServiceOrderManagement&lt;/font&gt;&lt;/b&gt;&lt;br&gt;&lt;b style=&quot;font-size: 7px;&quot;&gt;&lt;br&gt;/ServiceOrderManagement&lt;br&gt;/ServiceActivationManagement&lt;br&gt;/Notification/V1&lt;/b&gt;" style="rounded=0;whiteSpace=wrap;html=1;labelBorderColor=none;fontSize=10;fillColor=#b1ddf0;shadow=1;strokeColor=#10739e;points=[[0,0,0,0,0],[0,0.25,0,0,0],[0,0.3,0,0,0],[0,0.42,0,0,0],[0,0.55,0,0,0],[0,0.75,0,0,0],[0,1,0,0,0],[0.25,0,0,0,0],[0.25,1,0,0,0],[0.5,0,0,0,0],[0.5,1,0,0,0],[0.75,0,0,0,0],[0.75,1,0,0,0],[1,0,0,0,0],[1,0.25,0,0,0],[1,0.5,0,0,0],[1,0.75,0,0,0],[1,1,0,0,0]];" vertex="1" parent="1">
          <mxGeometry x="-1580" y="-1082" width="120" height="99" as="geometry" />
        </mxCell>
        <mxCell id="YMpiUgYcL-dhUj2A1P1a-19" style="edgeStyle=orthogonalEdgeStyle;rounded=0;orthogonalLoop=1;jettySize=auto;html=1;exitX=0.5;exitY=1;exitDx=0;exitDy=0;" edge="1" parent="1" source="YMpiUgYcL-dhUj2A1P1a-20" target="YMpiUgYcL-dhUj2A1P1a-8">
          <mxGeometry relative="1" as="geometry" />
        </mxCell>
        <mxCell id="YMpiUgYcL-dhUj2A1P1a-20" value="&lt;div data-en-clipboard=&quot;true&quot; data-pm-slice=&quot;1 1 []&quot; style=&quot;font-size: 11px;&quot;&gt;ms-campaign-notify-&lt;/div&gt;&lt;div data-en-clipboard=&quot;true&quot; data-pm-slice=&quot;1 1 []&quot; style=&quot;font-size: 11px;&quot;&gt;user-email-stream&lt;/div&gt;" style="rounded=1;whiteSpace=wrap;html=1;labelBorderColor=none;strokeColor=#0e8088;strokeWidth=1;fontSize=11;fillColor=#b0e3e6;fontStyle=1;shadow=1;" vertex="1" parent="1">
          <mxGeometry x="-1310.01" y="-892.5" width="138.99" height="53.5" as="geometry" />
        </mxCell>
        <mxCell id="YMpiUgYcL-dhUj2A1P1a-21" style="edgeStyle=orthogonalEdgeStyle;rounded=0;orthogonalLoop=1;jettySize=auto;html=1;exitX=0.5;exitY=1;exitDx=0;exitDy=0;entryX=0;entryY=0.5;entryDx=0;entryDy=0;entryPerimeter=0;" edge="1" parent="1" source="YMpiUgYcL-dhUj2A1P1a-16" target="YMpiUgYcL-dhUj2A1P1a-7">
          <mxGeometry relative="1" as="geometry" />
        </mxCell>
        <mxCell id="YMpiUgYcL-dhUj2A1P1a-22" value="SMTP TELEFONICA&lt;br&gt;&lt;br style=&quot;font-size: 8px;&quot;&gt;smtp.office365.com:587&lt;br&gt;&lt;br&gt;campanas.&lt;br&gt;notificaciones.&lt;br&gt;smtp@outlook.com" style="rounded=0;whiteSpace=wrap;html=1;fillColor=#FFFFFF;strokeColor=#FF0080;fontColor=#000000;shadow=1;fontSize=8;" vertex="1" parent="1">
          <mxGeometry x="-1450.01" y="-1082.5" width="90" height="100" as="geometry" />
        </mxCell>
        <mxCell id="YMpiUgYcL-dhUj2A1P1a-23" value="" style="rounded=0;whiteSpace=wrap;html=1;labelBorderColor=none;fontSize=11;strokeWidth=1;strokeColor=#B5739D;shadow=1;fontStyle=1;align=center;" vertex="1" parent="1">
          <mxGeometry x="-1340.01" y="-1082" width="190" height="100" as="geometry" />
        </mxCell>
        <mxCell id="YMpiUgYcL-dhUj2A1P1a-24" value="ORACLE - SCHEMA: CAMPSYS" style="text;html=1;strokeColor=none;fillColor=none;align=left;verticalAlign=middle;whiteSpace=wrap;rounded=0;fontStyle=1;fontSize=11;" vertex="1" parent="1">
          <mxGeometry x="-1340.01" y="-1082" width="183.6" height="20" as="geometry" />
        </mxCell>
        <mxCell id="YMpiUgYcL-dhUj2A1P1a-25" value="SERVER_CONFIG" style="rounded=1;whiteSpace=wrap;html=1;labelBorderColor=none;fontSize=11;strokeWidth=1;strokeColor=#b85450;shadow=1;fontStyle=0;align=center;fillColor=#FFF1ED;" vertex="1" parent="1">
          <mxGeometry x="-1316.77" y="-1049" width="143.51" height="44.5" as="geometry" />
        </mxCell>
        <mxCell id="YMpiUgYcL-dhUj2A1P1a-26" value="&lt;font color=&quot;#000000&quot; style=&quot;font-size: 8px;&quot;&gt;SMTP TELEFONICA&lt;br style=&quot;font-size: 8px;&quot;&gt;&lt;br style=&quot;font-size: 8px;&quot;&gt;10.226.5.191:25&lt;br style=&quot;font-size: 8px;&quot;&gt;&amp;nbsp;&lt;/font&gt;&lt;font color=&quot;#000000&quot; style=&quot;font-size: 8px;&quot;&gt;campaign.notification&lt;br style=&quot;font-size: 8px;&quot;&gt;@movistar.com.pe&lt;/font&gt;" style="rounded=0;whiteSpace=wrap;html=1;fillColor=#FFFFFF;strokeColor=#FF0080;fontColor=#ffffff;shadow=1;fontSize=8;" vertex="1" parent="1">
          <mxGeometry x="-1130.01" y="-931.75" width="90" height="123.5" as="geometry" />
        </mxCell>
        <mxCell id="YMpiUgYcL-dhUj2A1P1a-27" style="edgeStyle=orthogonalEdgeStyle;rounded=0;orthogonalLoop=1;jettySize=auto;html=1;exitX=0.5;exitY=0;exitDx=0;exitDy=0;entryX=0.914;entryY=0.999;entryDx=0;entryDy=0;entryPerimeter=0;" edge="1" parent="1" source="YMpiUgYcL-dhUj2A1P1a-13" target="YMpiUgYcL-dhUj2A1P1a-18">
          <mxGeometry relative="1" as="geometry" />
        </mxCell>
        <mxCell id="YMpiUgYcL-dhUj2A1P1a-28" value="/sendCustomerEmail" style="text;html=1;strokeColor=none;fillColor=none;align=center;verticalAlign=middle;whiteSpace=wrap;rounded=0;fontSize=9;" vertex="1" parent="1">
          <mxGeometry x="-1560.01" y="-971" width="90" height="12" as="geometry" />
        </mxCell>
        <mxCell id="YMpiUgYcL-dhUj2A1P1a-29" value="/sendEmail" style="text;html=1;strokeColor=none;fillColor=none;align=center;verticalAlign=middle;whiteSpace=wrap;rounded=0;fontSize=9;" vertex="1" parent="1">
          <mxGeometry x="-1430.01" y="-971" width="50" height="12" as="geometry" />
        </mxCell>
        <mxCell id="YMpiUgYcL-dhUj2A1P1a-30" style="edgeStyle=orthogonalEdgeStyle;rounded=0;orthogonalLoop=1;jettySize=auto;html=1;exitX=0.5;exitY=0;exitDx=0;exitDy=0;entryX=0.914;entryY=0.999;entryDx=0;entryDy=0;entryPerimeter=0;" edge="1" parent="1">
          <mxGeometry relative="1" as="geometry">
            <mxPoint x="-1380.5" y="-930" as="sourcePoint" />
            <mxPoint x="-1380.5" y="-983" as="targetPoint" />
            <Array as="points">
              <mxPoint x="-1380.01" y="-949" />
              <mxPoint x="-1380.01" y="-949" />
            </Array>
          </mxGeometry>
        </mxCell>
        <mxCell id="YMpiUgYcL-dhUj2A1P1a-31" value="/sendUserEmail" style="text;html=1;strokeColor=none;fillColor=none;align=center;verticalAlign=middle;whiteSpace=wrap;rounded=0;fontSize=9;" vertex="1" parent="1">
          <mxGeometry x="-1541.01" y="-805.25" width="70" height="12" as="geometry" />
        </mxCell>
      </root>
    </mxGraphModel>
  </diagram>
</mxfile>
